<svg xmlns="http://www.w3.org/2000/svg" viewBox="0 0 1600 1000" role="img" aria-label="Performance OKR dashboard">
  <defs><linearGradient id="bg" x1="0" x2="1" y1="0" y2="1"><stop stop-color="#eff6ff"/><stop offset="1" stop-color="#fefce8"/></linearGradient><linearGradient id="b" x1="0" x2="1"><stop stop-color="#2563eb"/><stop offset="1" stop-color="#eab308"/></linearGradient><filter id="s"><feDropShadow dx="0" dy="24" stdDeviation="24" flood-color="#172554" flood-opacity=".14"/></filter></defs>
  <rect width="1600" height="1000" fill="url(#bg)"/><circle cx="1320" cy="180" r="250" fill="#eab308" opacity=".12"/><circle cx="250" cy="790" r="260" fill="#2563eb" opacity=".11"/>
  <g filter="url(#s)"><rect x="260" y="150" width="1080" height="700" rx="36" fill="#fff" opacity=".93"/>
    <rect x="330" y="245" width="430" height="220" rx="24" fill="#f8fafc" stroke="#dbeafe"/><rect x="820" y="245" width="380" height="220" rx="24" fill="#f8fafc" stroke="#fde68a"/>
    <path d="M380 410l85-82 95 54 125-112" fill="none" stroke="url(#b)" stroke-width="14" stroke-linecap="round" stroke-linejoin="round"/><circle cx="685" cy="270" r="16" fill="#2563eb"/>
    <circle cx="1010" cy="355" r="82" fill="none" stroke="#e2e8f0" stroke-width="28"/><path d="M1010 273a82 82 0 0 1 68 128" fill="none" stroke="#eab308" stroke-width="28" stroke-linecap="round"/>
    <g fill="#fff" stroke="#dbe4ff" stroke-width="3"><rect x="330" y="540" width="250" height="150" rx="22"/><rect x="620" y="540" width="250" height="150" rx="22"/><rect x="910" y="540" width="250" height="150" rx="22"/></g>
    <g fill="#94a3b8"><rect x="370" y="580" width="118" height="14" rx="7"/><rect x="370" y="625" width="160" height="12" rx="6"/><rect x="660" y="580" width="138" height="14" rx="7"/><rect x="660" y="625" width="150" height="12" rx="6"/><rect x="950" y="580" width="128" height="14" rx="7"/><rect x="950" y="625" width="145" height="12" rx="6"/></g>
  </g>
</svg>
